<svg xmlns="http://www.w3.org/2000/svg" viewBox="0 0 512 512" width="100%" height="100%">
  <defs>
    <linearGradient id="bgGrad" x1="0%" y1="0%" x2="100%" y2="100%">
      <stop offset="0%" stop-color="#1e3a5f"/>
      <stop offset="50%" stop-color="#0f2744"/>
      <stop offset="100%" stop-color="#0a182b"/>
    </linearGradient>
    <linearGradient id="goldGrad" x1="0%" y1="0%" x2="100%" y2="100%">
      <stop offset="0%" stop-color="#ffe259"/>
      <stop offset="100%" stop-color="#ffa751"/>
    </linearGradient>
    <linearGradient id="tileGrad" x1="0%" y1="0%" x2="0%" y2="100%">
      <stop offset="0%" stop-color="#ffffff"/>
      <stop offset="100%" stop-color="#e2e8f0"/>
    </linearGradient>
    <linearGradient id="purpleGrad" x1="0%" y1="0%" x2="100%" y2="100%">
      <stop offset="0%" stop-color="#a855f7"/>
      <stop offset="100%" stop-color="#6b21a8"/>
    </linearGradient>
    <filter id="dropShadow" x="-20%" y="-20%" width="140%" height="140%">
      <feDropShadow dx="0" dy="12" stdDeviation="16" flood-color="#000" flood-opacity="0.45"/>
    </filter>
  </defs>

  <rect x="16" y="16" width="480" height="480" rx="100" fill="url(#bgGrad)"/>
  <rect x="24" y="24" width="464" height="464" rx="92" fill="none" stroke="url(#goldGrad)" stroke-width="8" stroke-opacity="0.6"/>

  <g filter="url(#dropShadow)">
    <rect x="116" y="86" width="280" height="340" rx="36" fill="url(#tileGrad)" stroke="#cbd5e1" stroke-width="6"/>
    <rect x="116" y="86" width="24" height="340" rx="12" fill="url(#purpleGrad)"/>

    <path d="M256 140 L286 170 L274 310 L256 350 L238 310 L226 170 Z" fill="url(#purpleGrad)"/>
    <polygon points="238,140 274,140 268,165 244,165" fill="#581c87"/>

    <circle cx="340" cy="140" r="32" fill="url(#goldGrad)"/>
    <text x="340" y="152" font-family="'Noto Sans KR', sans-serif" font-weight="900" font-size="36" fill="#1e293b" text-anchor="middle">E</text>

    <text x="256" y="395" font-family="'Noto Sans KR', sans-serif" font-weight="900" font-size="32" fill="#4c1d95" text-anchor="middle" letter-spacing="2">이투시오</text>
  </g>
</svg>